<svg width="30" height="30" viewBox="0 0 30 30" fill="none" xmlns="http://www.w3.org/2000/svg">
<path d="M6.3375 5.62502L6.75938 6.4594L7.275 7.50002H11.25V12.1875H3.75V5.62502H6.3375ZM6.91875 3.75002H2.8125C2.56386 3.75002 2.3254 3.84879 2.14959 4.02461C1.97377 4.20043 1.875 4.43888 1.875 4.68752V13.125C1.875 13.3737 1.97377 13.6121 2.14959 13.7879C2.3254 13.9638 2.56386 14.0625 2.8125 14.0625H12.1875C12.4361 14.0625 12.6746 13.9638 12.8504 13.7879C13.0262 13.6121 13.125 13.3737 13.125 13.125V6.56252C13.125 6.31388 13.0262 6.07543 12.8504 5.89961C12.6746 5.7238 12.4361 5.62502 12.1875 5.62502H8.4375L7.7625 4.26565C7.68388 4.10961 7.56322 3.97866 7.41413 3.88755C7.26505 3.79644 7.09347 3.74881 6.91875 3.75002Z" fill="#077BC3"/>
<path d="M21.3375 5.62502L21.7594 6.4594L22.275 7.50002H26.25V12.1875H18.75V5.62502H21.3375ZM21.9187 3.75002H17.8125C17.5639 3.75002 17.3254 3.84879 17.1496 4.02461C16.9738 4.20043 16.875 4.43888 16.875 4.68752V13.125C16.875 13.3737 16.9738 13.6121 17.1496 13.7879C17.3254 13.9638 17.5639 14.0625 17.8125 14.0625H27.1875C27.4361 14.0625 27.6746 13.9638 27.8504 13.7879C28.0262 13.6121 28.125 13.3737 28.125 13.125V6.56252C28.125 6.31388 28.0262 6.07543 27.8504 5.89961C27.6746 5.7238 27.4361 5.62502 27.1875 5.62502H23.4375L22.7625 4.26565C22.6839 4.10961 22.5632 3.97866 22.4141 3.88755C22.265 3.79644 22.0935 3.74881 21.9187 3.75002Z" fill="#077BC3"/>
<path d="M6.3375 17.8125L6.75938 18.6469L7.275 19.6875H11.25V24.375H3.75V17.8125H6.3375ZM6.91875 15.9375H2.8125C2.56386 15.9375 2.3254 16.0363 2.14959 16.2121C1.97377 16.3879 1.875 16.6264 1.875 16.875V25.3125C1.875 25.5612 1.97377 25.7996 2.14959 25.9754C2.3254 26.1513 2.56386 26.25 2.8125 26.25H12.1875C12.4361 26.25 12.6746 26.1513 12.8504 25.9754C13.0262 25.7996 13.125 25.5612 13.125 25.3125V18.75C13.125 18.5014 13.0262 18.2629 12.8504 18.0871C12.6746 17.9113 12.4361 17.8125 12.1875 17.8125H8.4375L7.7625 16.4531C7.68388 16.2971 7.56322 16.1662 7.41413 16.075C7.26505 15.9839 7.09347 15.9363 6.91875 15.9375Z" fill="#077BC3"/>
<path d="M21.3375 17.8125L21.7594 18.6469L22.275 19.6875H26.25V24.375H18.75V17.8125H21.3375ZM21.9187 15.9375H17.8125C17.5639 15.9375 17.3254 16.0363 17.1496 16.2121C16.9738 16.3879 16.875 16.6264 16.875 16.875V25.3125C16.875 25.5612 16.9738 25.7996 17.1496 25.9754C17.3254 26.1513 17.5639 26.25 17.8125 26.25H27.1875C27.4361 26.25 27.6746 26.1513 27.8504 25.9754C28.0262 25.7996 28.125 25.5612 28.125 25.3125V18.75C28.125 18.5014 28.0262 18.2629 27.8504 18.0871C27.6746 17.9113 27.4361 17.8125 27.1875 17.8125H23.4375L22.7625 16.4531C22.6839 16.2971 22.5632 16.1662 22.4141 16.075C22.265 15.9839 22.0935 15.9363 21.9187 15.9375Z" fill="#077BC3"/>
</svg>
