<svg width="32" height="33" viewBox="0 0 32 33" fill="none" xmlns="http://www.w3.org/2000/svg">
<path d="M10.6667 8.31819C10.6667 6.87156 11.2287 5.48417 12.2288 4.46125C13.229 3.43832 14.5856 2.86365 16.0001 2.86365C17.4146 2.86365 18.7711 3.43832 19.7713 4.46125C20.7715 5.48417 21.3334 6.87156 21.3334 8.31819V16.5C21.3334 17.9466 20.7715 19.334 19.7713 20.357C18.7711 21.3799 17.4146 21.9546 16.0001 21.9546C14.5856 21.9546 13.229 21.3799 12.2288 20.357C11.2287 19.334 10.6667 17.9466 10.6667 16.5V8.31819ZM16.0001 4.56819C15.0276 4.56819 14.095 4.96328 13.4074 5.66654C12.7197 6.3698 12.3334 7.32363 12.3334 8.31819V16.5C12.3334 17.4946 12.7197 18.4484 13.4074 19.1517C14.095 19.8549 15.0276 20.25 16.0001 20.25C16.9725 20.25 17.9052 19.8549 18.5928 19.1517C19.2804 18.4484 19.6667 17.4946 19.6667 16.5V8.31819C19.6667 7.32363 19.2804 6.3698 18.5928 5.66654C17.9052 4.96328 16.9725 4.56819 16.0001 4.56819Z" fill="white"/>
<path d="M16.6667 25.8512C21.5101 25.5014 25.3334 21.3716 25.3334 16.3296C25.3334 16.1035 25.2456 15.8868 25.0893 15.7269C24.9331 15.5671 24.7211 15.4773 24.5001 15.4773C24.2791 15.4773 24.0671 15.5671 23.9108 15.7269C23.7545 15.8868 23.6667 16.1035 23.6667 16.3296C23.6667 20.6598 20.2341 24.1705 16.0001 24.1705C11.7661 24.1705 8.33341 20.6598 8.33341 16.3296C8.33341 16.1035 8.24562 15.8868 8.08934 15.7269C7.93306 15.5671 7.7211 15.4773 7.50008 15.4773C7.27907 15.4773 7.06711 15.5671 6.91083 15.7269C6.75455 15.8868 6.66675 16.1035 6.66675 16.3296C6.66675 21.2557 10.3154 25.3105 15.0001 25.8205V29.2841C15.0001 29.5102 15.0879 29.7269 15.2442 29.8868C15.4004 30.0466 15.6124 30.1364 15.8334 30.1364C16.0544 30.1364 16.2664 30.0466 16.4227 29.8868C16.579 29.7269 16.6667 29.5102 16.6667 29.2841V25.8512Z" fill="white"/>
</svg>
