<svg width="35" height="35" viewBox="0 0 35 35" fill="none" xmlns="http://www.w3.org/2000/svg">
<path d="M5.83331 8.74996C5.83331 8.36319 5.98696 7.99225 6.26045 7.71876C6.53394 7.44527 6.90487 7.29163 7.29165 7.29163H27.7083C28.0951 7.29163 28.466 7.44527 28.7395 7.71876C29.013 7.99225 29.1666 8.36319 29.1666 8.74996C29.1666 9.13673 29.013 9.50767 28.7395 9.78116C28.466 10.0546 28.0951 10.2083 27.7083 10.2083H7.29165C6.90487 10.2083 6.53394 10.0546 6.26045 9.78116C5.98696 9.50767 5.83331 9.13673 5.83331 8.74996Z" fill="#353535"/>
<path d="M5.83331 26.25C5.83331 25.8632 5.98696 25.4923 6.26045 25.2188C6.53394 24.9453 6.90487 24.7916 7.29165 24.7916H27.7083C28.0951 24.7916 28.466 24.9453 28.7395 25.2188C29.013 25.4923 29.1666 25.8632 29.1666 26.25C29.1666 26.6367 29.013 27.0077 28.7395 27.2812C28.466 27.5546 28.0951 27.7083 27.7083 27.7083H7.29165C6.90487 27.7083 6.53394 27.5546 6.26045 27.2812C5.98696 27.0077 5.83331 26.6367 5.83331 26.25Z" fill="#353535"/>
<path d="M7.29165 16.0416C6.90487 16.0416 6.53394 16.1953 6.26045 16.4688C5.98696 16.7423 5.83331 17.1132 5.83331 17.5C5.83331 17.8867 5.98696 18.2577 6.26045 18.5312C6.53394 18.8046 6.90487 18.9583 7.29165 18.9583H18.9583C19.3451 18.9583 19.716 18.8046 19.9895 18.5312C20.263 18.2577 20.4166 17.8867 20.4166 17.5C20.4166 17.1132 20.263 16.7423 19.9895 16.4688C19.716 16.1953 19.3451 16.0416 18.9583 16.0416H7.29165Z" fill="#353535"/>
</svg>
